<svg width="212" height="161" viewBox="0 0 212 161" fill="none" xmlns="http://www.w3.org/2000/svg">
<path d="M82.5009 10.5959C80.3059 13.7648 77.3236 18.9068 75.6111 25.8321C74.2848 31.1965 74.153 35.8819 74.3263 39.2704C77.8913 38.3718 81.8178 37.5446 86.0736 36.8847C90.7029 36.167 95.0257 35.7554 98.968 35.5458C98.0466 32.1775 96.4061 27.6144 93.3712 22.759C89.7177 16.9128 85.5073 12.9849 82.5007 10.5959L82.5009 10.5959Z" fill="#EA9127" stroke="white" stroke-width="20" stroke-linejoin="round"/>
<path d="M164.373 21.7752C161.073 23.1481 156.364 25.5456 151.581 29.688C146.719 33.8994 143.646 38.2991 141.816 41.4019C145.433 42.6205 149.345 44.1166 153.461 45.9625C157.556 47.7984 161.258 49.7133 164.559 51.5927C165.702 48.2366 167.046 43.006 166.983 36.5114C166.921 30.1749 165.545 25.0792 164.373 21.7752L164.373 21.7752Z" fill="#EA9127" stroke="white" stroke-width="20" stroke-linejoin="round"/>
<path d="M73.6319 43.9261C72.555 49.3785 71.6751 56.1495 71.6768 63.9326C71.6783 72.2283 72.6808 79.3975 73.8724 85.0806C79.6548 74.502 86.1294 68.1772 91.2233 64.2786C95.8696 60.7225 100.888 58.0218 103.451 51.8844C105.419 47.1703 105.088 42.4684 104.445 39.1117C100.431 39.1236 95.9166 39.3712 91.0131 40.0314C84.3361 40.9304 78.4974 42.3844 73.6319 43.9261Z" fill="#E39334" stroke="white" stroke-width="20" stroke-linejoin="round"/>
<path d="M108.48 39.1398C108.894 41.305 109.297 44.861 108.471 49.1029C108.157 50.7191 107.428 54.2867 104.993 57.9474C101.917 62.5731 99.1265 62.8246 92.1522 69.4016C90.3631 71.0889 88.9862 72.544 88.1376 73.4681C96.7719 78.9487 105.406 84.4296 114.04 89.9104C118.678 88.017 140.011 78.7624 145.651 58.0662C146.466 55.0787 147.065 51.4415 147.005 47.1893C141.423 44.9297 134.458 42.6383 126.283 41.0726C119.659 39.8043 113.639 39.2804 108.48 39.1402L108.48 39.1398Z" fill="#F6D365" stroke="white" stroke-width="20" stroke-linejoin="round"/>
<path d="M164.319 55.7546C164.37 58.8443 164.247 62.1704 163.864 65.6933C162.454 78.6481 158.088 89.0684 154.073 96.3997C154.12 95.7884 154.538 88.6828 148.741 84.0215C143.21 79.5748 136.735 81.1403 136.041 81.3207C138.818 78.7787 142.504 74.798 145.573 69.1401C150.059 60.8691 150.993 53.1309 151.183 48.7543C155.562 51.0878 159.94 53.4213 164.319 55.7548L164.319 55.7546Z" fill="#EA9127" stroke="white" stroke-width="20" stroke-linejoin="round"/>
<path d="M74.4854 89.4484C79.6784 101.667 84.8713 113.885 90.0645 126.103C94.0558 128.123 100.214 130.663 108.114 131.792C116.448 132.982 123.397 132.128 127.891 131.219C136.12 120.782 144.349 110.345 152.578 99.9079C150.201 100.3 147.096 100.696 143.446 100.849C140.367 100.979 136.616 100.947 131.739 100.433C122.038 99.4116 121.675 97.9351 112.661 96.7227C104.547 95.6317 104.392 96.767 95.1896 95.3817C89.7093 94.5567 85.6227 93.5305 81.9853 92.3446C78.9101 91.3417 76.3687 90.2939 74.4856 89.4486L74.4854 89.4484Z" fill="#F6D365" stroke="white" stroke-width="20" stroke-linejoin="round"/>
<path d="M109.314 93.9461C107.136 92.156 104.165 89.8034 100.514 87.1717C98.5571 85.7613 97.0133 84.7095 95.3297 83.564C92.8439 81.8732 89.5894 79.7065 85.6944 77.2404C85.0125 78.3197 83.85 80.4798 83.5657 83.4544C83.3162 86.0639 83.8519 88.1539 84.2478 89.326C87.4281 89.527 90.8683 89.8864 94.5203 90.4742C100.058 91.3656 105.012 92.6093 109.314 93.9463L109.314 93.9461Z" fill="#532322" stroke="white" stroke-width="20" stroke-linejoin="round"/>
<path d="M117.176 95.0168C121.893 92.926 127.044 90.8641 132.617 88.937C136.631 87.5486 140.509 86.353 144.22 85.3213C144.593 86.5443 145.181 89.0756 144.529 92.1586C144.02 94.5665 142.967 96.3083 142.263 97.2909C139.137 96.6121 135.695 96.0179 131.967 95.5996C126.521 94.9881 121.544 94.873 117.176 95.0168Z" fill="#532322" stroke="white" stroke-width="20" stroke-linejoin="round"/>
<path d="M94.3586 132.66C97.8629 133.943 102.403 135.259 107.8 135.99C113.262 136.73 118.038 136.659 121.784 136.344C116.474 140.976 111.164 145.609 105.854 150.241C102.022 144.381 98.1902 138.521 94.3586 132.66Z" fill="#532322" stroke="white" stroke-width="20" stroke-linejoin="round"/>
<path d="M117.074 95.0272C119.653 93.8902 123.148 92.4252 127.374 90.8749C129.639 90.0439 131.409 89.4469 133.339 88.7978C136.188 87.8389 139.906 86.6298 144.322 85.3045C144.688 86.5277 145.225 88.9209 144.697 91.8622C144.234 94.4426 143.155 96.3105 142.459 97.3325C139.342 96.6691 135.932 96.0883 132.257 95.6702C126.683 95.0365 121.577 94.8991 117.075 95.0274L117.074 95.0272Z" fill="#532322" stroke="white" stroke-width="20" stroke-linejoin="round"/>
<path d="M73.8716 85.08C72.1854 76.2124 71.1685 65.3904 72.2802 53.2123C72.5792 49.9356 73.0092 46.8162 73.5309 43.864C78.2816 42.3963 83.9305 41.0136 90.3581 40.1216C95.5168 39.4057 100.254 39.1339 104.444 39.1116C103.398 40.8736 101.63 43.5643 98.9524 46.3876C91.2035 54.5595 84.3223 54.9016 79.3581 59.6735C75.6698 63.2193 72.0821 70.1316 73.8718 85.0803L73.8716 85.08Z" fill="#CC5520" stroke="white" stroke-width="20" stroke-linejoin="round"/>
<path d="M137.343 73.554C133.486 72.2618 126.964 69.4878 120.88 63.5171C111.421 54.2333 109.12 43.2046 108.478 39.1398C113.849 39.2858 120.219 39.8498 127.271 41.2669C135.036 42.8271 141.665 45.0273 147.003 47.189C147.039 50.0787 146.773 53.8559 145.611 58.0954C143.583 65.4951 139.82 70.6728 137.343 73.5538L137.343 73.554Z" fill="#CC5520" stroke="white" stroke-width="20" stroke-linejoin="round"/>
<path d="M151.181 48.754C155.56 51.0875 159.938 53.421 164.316 55.7545C164.381 60.4218 164.06 66.0442 162.852 72.2946C160.859 82.6119 157.197 90.76 154.07 96.3996C155.04 94.4163 162.593 78.3729 154.653 65.9141C153.516 64.1292 151.832 62.0597 149.297 60.1027C149.659 58.8706 149.996 57.5396 150.284 56.1143C150.827 53.4257 151.085 50.9451 151.181 48.7542L151.181 48.754Z" fill="#CC5520" stroke="white" stroke-width="20" stroke-linejoin="round"/>
<path d="M141.816 41.4019C143.586 38.4045 146.388 34.4091 150.652 30.5148C155.744 25.8653 160.861 23.2393 164.373 21.7752C165.482 24.9137 166.648 29.2928 166.922 34.6068C167.299 41.9459 165.813 47.8845 164.559 51.5925C164.554 46.4125 161.7 41.6692 157.18 39.3521C152.222 36.8107 146.094 37.6165 141.816 41.4019Z" fill="#CC5520" stroke="white" stroke-width="20" stroke-linejoin="round"/>
<path d="M74.3276 39.2705C74.1521 35.8398 74.2857 31.0003 75.7101 25.4452C77.4378 18.7072 80.3508 13.6998 82.5023 10.5961C85.1845 12.7265 88.5728 15.8813 91.7278 20.2998C95.8811 26.1164 97.9217 31.73 98.9695 35.546C95.881 30.4405 89.9399 27.8785 84.3574 29.1612C79.4463 30.2897 75.5512 34.2239 74.3278 39.2705L74.3276 39.2705Z" fill="#CC5520" stroke="white" stroke-width="20" stroke-linejoin="round"/>
<path d="M90.0645 126.103C84.8716 113.885 79.6786 101.667 74.4854 89.4484C77.126 95.7305 80.5601 99.4126 83.0502 101.546C98.5135 114.794 124.196 108.271 137.523 104.871C144.243 103.157 149.495 101.175 152.546 99.9352C144.327 110.363 136.109 120.791 127.891 131.219C123.486 132.11 116.762 132.94 108.696 131.87C100.479 130.781 94.1081 128.15 90.0643 126.103L90.0645 126.103Z" fill="#EA9127" stroke="white" stroke-width="20" stroke-linejoin="round"/>
<path d="M108.479 39.1425C108.964 41.4919 109.457 45.5241 108.299 50.264C107.913 51.8401 107.12 55.4617 104.312 58.9075C102.113 61.6067 100.545 62.3883 96.728 65.443C94.5241 67.2069 91.4905 69.8372 88.1373 73.4704C91.3433 75.0977 95.1314 76.6606 99.4849 77.8344C114.231 81.8101 127.135 79.078 134.2 76.9278C135.248 75.804 136.296 74.6802 137.344 73.5563C131.311 69.3662 123.382 62.7424 116.36 52.8317C112.925 47.9832 110.379 43.2967 108.479 39.1423L108.479 39.1425Z" fill="#EA9127" stroke="white" stroke-width="20" stroke-linejoin="round"/>
<path d="M82.5627 10.6021C81.3652 12.2535 80.1009 14.2452 78.9317 16.5866C77.0346 20.3852 75.9826 23.9143 75.3765 26.7356C75.6149 25.9065 76.881 21.8092 80.7173 20.0283C85.0917 17.9977 91.0803 19.7815 94.6562 24.7897C92.963 21.8555 90.5976 18.4159 87.3137 14.9804C85.6949 13.2865 84.0855 11.8369 82.5624 10.6021L82.5627 10.6021Z" fill="#903518" stroke="white" stroke-width="20" stroke-linejoin="round"/>
<path d="M164.372 21.7752C165.111 23.659 165.832 25.9267 166.341 28.5384C167.179 32.836 167.159 36.5981 166.911 39.4366C166.923 38.6933 166.925 34.0824 163.493 31.2046C159.801 28.1089 153.614 28.2565 148.969 32.1105C151.214 29.8551 154.252 27.25 158.19 24.8893C160.378 23.5773 162.472 22.5636 164.372 21.7752L164.372 21.7752Z" fill="#903518" stroke="white" stroke-width="20" stroke-linejoin="round"/>
<path d="M127.89 131.22C134.058 123.394 140.225 115.568 146.393 107.742C141.156 112.439 130.591 120.599 114.969 124.434C104.839 126.92 96.0563 126.735 90.0636 126.104C94.3636 128.268 101.246 131.074 110.126 132.03C117.436 132.817 123.595 132.081 127.89 131.22Z" fill="#CC5520" stroke="white" stroke-width="20" stroke-linejoin="round"/>
<path d="M81.9042 10.5959C79.7092 13.7648 76.7268 18.9068 75.0144 25.8321C73.6881 31.1965 73.5563 35.8819 73.7295 39.2704C77.2945 38.3718 81.221 37.5446 85.4769 36.8847C90.1062 36.167 94.4289 35.7554 98.3712 35.5458C97.4499 32.1775 95.8093 27.6144 92.7745 22.759C89.121 16.9128 84.9106 12.9849 81.904 10.5959L81.9042 10.5959Z" fill="#EA9127"/>
<path d="M163.776 21.7752C160.476 23.1481 155.767 25.5456 150.985 29.688C146.122 33.8994 143.049 38.2991 141.219 41.4019C144.836 42.6205 148.748 44.1166 152.865 45.9625C156.96 47.7984 160.661 49.7133 163.963 51.5927C165.105 48.2366 166.449 43.006 166.386 36.5114C166.325 30.1749 164.948 25.0792 163.776 21.7752L163.776 21.7752Z" fill="#EA9127"/>
<path d="M73.0352 43.9261C71.9583 49.3785 71.0784 56.1495 71.0802 63.9326C71.0816 72.2283 72.0841 79.3975 73.2757 85.0806C79.0581 74.502 85.5327 68.1772 90.6266 64.2786C95.2729 60.7225 100.291 58.0218 102.854 51.8844C104.822 47.1703 104.491 42.4684 103.848 39.1117C99.8346 39.1236 95.3199 39.3712 90.4165 40.0314C83.7394 40.9304 77.9007 42.3844 73.0352 43.9261Z" fill="#E39334"/>
<path d="M107.883 39.1398C108.298 41.305 108.7 44.861 107.874 49.1029C107.56 50.7191 106.831 54.2867 104.396 57.9474C101.32 62.5731 98.5297 62.8246 91.5555 69.4016C89.7663 71.0889 88.3895 72.544 87.5409 73.4681C96.1752 78.9487 104.809 84.4296 113.444 89.9104C118.082 88.017 139.414 78.7624 145.055 58.0662C145.869 55.0787 146.468 51.4415 146.408 47.1893C140.826 44.9297 133.862 42.6383 125.686 41.0726C119.062 39.8043 113.043 39.2804 107.883 39.1402L107.883 39.1398Z" fill="#F6D365"/>
<path d="M163.722 55.7546C163.773 58.8443 163.65 62.1704 163.267 65.6933C161.858 78.6481 157.492 89.0684 153.476 96.3997C153.523 95.7884 153.941 88.6828 148.144 84.0215C142.614 79.5748 136.138 81.1403 135.445 81.3207C138.222 78.7787 141.908 74.798 144.976 69.1401C149.462 60.8691 150.396 53.1309 150.587 48.7543C154.965 51.0878 159.343 53.4213 163.722 55.7548L163.722 55.7546Z" fill="#EA9127"/>
<path d="M73.8887 89.4484C79.0816 101.667 84.2746 113.885 89.4678 126.103C93.4591 128.123 99.617 130.663 107.517 131.792C115.851 132.982 122.8 132.128 127.294 131.219C135.523 120.782 143.752 110.345 151.981 99.9079C149.604 100.3 146.499 100.696 142.849 100.849C139.77 100.979 136.019 100.947 131.142 100.433C121.441 99.4116 121.078 97.9351 112.064 96.7227C103.95 95.6317 103.795 96.767 94.5928 95.3817C89.1125 94.5567 85.0259 93.5305 81.3885 92.3446C78.3134 91.3417 75.7719 90.2939 73.8889 89.4486L73.8887 89.4484Z" fill="#F6D365"/>
<path d="M108.717 93.9461C106.54 92.156 103.569 89.8034 99.9174 87.1717C97.9604 85.7613 96.4165 84.7095 94.733 83.564C92.2471 81.8732 88.9927 79.7065 85.0977 77.2404C84.4158 78.3197 83.2533 80.4798 82.9689 83.4544C82.7195 86.0639 83.2551 88.1539 83.6511 89.326C86.8314 89.527 90.2715 89.8864 93.9236 90.4742C99.4613 91.3656 104.415 92.6093 108.717 93.9463L108.717 93.9461Z" fill="#532322"/>
<path d="M116.579 95.0168C121.296 92.926 126.447 90.8641 132.02 88.937C136.034 87.5486 139.912 86.353 143.623 85.3213C143.996 86.5443 144.584 89.0756 143.933 92.1586C143.424 94.5665 142.37 96.3083 141.666 97.2909C138.541 96.6121 135.099 96.0179 131.371 95.5996C125.924 94.9881 120.947 94.873 116.579 95.0168Z" fill="#532322"/>
<path d="M93.7619 132.66C97.2663 133.943 101.806 135.259 107.204 135.99C112.666 136.73 117.441 136.659 121.187 136.344C115.877 140.976 110.567 145.609 105.258 150.241C101.426 144.381 97.5936 138.521 93.7619 132.66Z" fill="#532322"/>
<path d="M116.477 95.0272C119.057 93.8902 122.552 92.4252 126.777 90.8749C129.042 90.0439 130.812 89.4469 132.742 88.7978C135.591 87.8389 139.31 86.6298 143.725 85.3045C144.091 86.5277 144.629 88.9209 144.101 91.8622C143.638 94.4426 142.559 96.3105 141.862 97.3325C138.745 96.6691 135.335 96.0883 131.66 95.6702C126.087 95.0365 120.981 94.8991 116.478 95.0274L116.477 95.0272Z" fill="#532322"/>
<path d="M73.2748 85.08C71.5887 76.2124 70.5718 65.3904 71.6834 53.2123C71.9825 49.9356 72.4125 46.8162 72.9341 43.864C77.6849 42.3963 83.3338 41.0136 89.7613 40.1216C94.9201 39.4057 99.6574 39.1339 103.847 39.1116C102.802 40.8736 101.033 43.5643 98.3557 46.3876C90.6067 54.5595 83.7256 54.9016 78.7614 59.6735C75.0731 63.2193 71.4854 70.1316 73.275 85.0803L73.2748 85.08Z" fill="#CC5520"/>
<path d="M136.746 73.554C132.889 72.2618 126.367 69.4878 120.283 63.5171C110.824 54.2333 108.523 43.2046 107.882 39.1398C113.252 39.2858 119.622 39.8498 126.674 41.2669C134.439 42.8271 141.068 45.0273 146.407 47.189C146.442 50.0787 146.176 53.8559 145.015 58.0954C142.987 65.4951 139.223 70.6728 136.746 73.5538L136.746 73.554Z" fill="#CC5520"/>
<path d="M150.584 48.754C154.963 51.0875 159.341 53.421 163.72 55.7545C163.784 60.4218 163.464 66.0442 162.256 72.2946C160.262 82.6119 156.6 90.76 153.474 96.3996C154.443 94.4163 161.996 78.3729 154.057 65.9141C152.919 64.1292 151.236 62.0597 148.701 60.1027C149.063 58.8706 149.399 57.5396 149.687 56.1143C150.23 53.4257 150.489 50.9451 150.585 48.7542L150.584 48.754Z" fill="#CC5520"/>
<path d="M141.219 41.4019C142.989 38.4045 145.791 34.4091 150.056 30.5148C155.147 25.8653 160.265 23.2393 163.776 21.7752C164.886 24.9137 166.051 29.2928 166.325 34.6068C166.703 41.9459 165.216 47.8845 163.962 51.5925C163.957 46.4125 161.103 41.6692 156.583 39.3521C151.625 36.8107 145.498 37.6165 141.219 41.4019Z" fill="#CC5520"/>
<path d="M73.7309 39.2705C73.5554 35.8398 73.6891 31.0003 75.1135 25.4452C76.8411 18.7072 79.7541 13.6998 81.9056 10.5961C84.5878 12.7265 87.9761 15.8813 91.1311 20.2998C95.2844 26.1164 97.325 31.73 98.3728 35.546C95.2843 30.4405 89.3432 27.8785 83.7607 29.1612C78.8496 30.2897 74.9545 34.2239 73.7311 39.2705L73.7309 39.2705Z" fill="#CC5520"/>
<path d="M89.4678 126.103C84.2748 113.885 79.0818 101.667 73.8887 89.4484C76.5292 95.7305 79.9633 99.4126 82.4534 101.546C97.9168 114.794 123.599 108.271 136.926 104.871C143.647 103.157 148.898 101.175 151.949 99.9352C143.731 110.363 135.512 120.791 127.294 131.219C122.889 132.11 116.165 132.94 108.099 131.87C99.8825 130.781 93.5113 128.15 89.4676 126.103L89.4678 126.103Z" fill="#EA9127"/>
<path d="M107.883 39.1425C108.367 41.4919 108.86 45.5241 107.702 50.264C107.317 51.8401 106.523 55.4617 103.715 58.9075C101.516 61.6067 99.948 62.3883 96.1312 65.443C93.9274 67.2069 90.8938 69.8372 87.5406 73.4704C90.7465 75.0977 94.5346 76.6606 98.8882 77.8344C113.634 81.8101 126.538 79.078 133.604 76.9278C134.652 75.804 135.699 74.6802 136.747 73.5563C130.715 69.3662 122.785 62.7424 115.764 52.8317C112.328 47.9832 109.782 43.2967 107.883 39.1423L107.883 39.1425Z" fill="#EA9127"/>
<path d="M81.966 10.6021C80.7685 12.2535 79.5042 14.2452 78.3351 16.5866C76.4379 20.3852 75.3859 23.9143 74.7798 26.7356C75.0182 25.9065 76.2844 21.8092 80.1206 20.0283C84.495 17.9977 90.4836 19.7815 94.0596 24.7897C92.3663 21.8555 90.0009 18.4159 86.717 14.9804C85.0982 13.2865 83.4889 11.8369 81.9658 10.6021L81.966 10.6021Z" fill="#903518"/>
<path d="M163.775 21.7752C164.514 23.659 165.235 25.9267 165.745 28.5384C166.583 32.836 166.562 36.5981 166.315 39.4366C166.326 38.6933 166.328 34.0824 162.896 31.2046C159.205 28.1089 153.017 28.2565 148.372 32.1105C150.617 29.8551 153.655 27.25 157.593 24.8893C159.781 23.5773 161.875 22.5636 163.776 21.7752L163.775 21.7752Z" fill="#903518"/>
<path d="M127.293 131.22C133.461 123.394 139.629 115.568 145.796 107.742C140.559 112.439 129.994 120.599 114.373 124.434C104.242 126.92 95.4596 126.735 89.4669 126.104C93.7669 128.268 100.65 131.074 109.53 132.03C116.84 132.817 122.998 132.081 127.293 131.22Z" fill="#CC5520"/>
<path d="M10.9683 131.865C13.7894 131.865 15.9652 130.043 17.3085 127.893C18.6738 125.709 19.4365 122.847 19.4365 119.816C19.4365 116.786 18.6738 113.923 17.3085 111.739C15.9652 109.59 13.7894 107.767 10.9683 107.767C8.14716 107.767 5.97136 109.59 4.62807 111.739C3.26276 113.923 2.5 116.786 2.5 119.816C2.5 122.847 3.26276 125.709 4.62807 127.893C5.97136 130.043 8.14716 131.865 10.9683 131.865Z" fill="#CC5520" stroke="white" stroke-width="5"/>
<path d="M179.107 133.845C181.881 133.333 183.691 131.146 184.622 128.789C185.568 126.393 185.799 123.44 185.25 120.46C184.7 117.479 183.431 114.803 181.692 112.902C179.981 111.032 177.511 109.634 174.736 110.146C171.962 110.658 170.153 112.845 169.222 115.202C168.275 117.598 168.044 120.551 168.594 123.531C169.144 126.512 170.413 129.188 172.152 131.089C173.863 132.959 176.333 134.356 179.107 133.845Z" fill="#CC5520" stroke="white" stroke-width="5"/>
<path d="M34.8413 131.865C37.6624 131.865 39.8382 130.043 41.1815 127.893C42.5468 125.709 43.3096 122.847 43.3096 119.816C43.3096 116.786 42.5468 113.923 41.1815 111.739C39.8382 109.59 37.6624 107.767 34.8413 107.767C32.0202 107.767 29.8444 109.59 28.5011 111.739C27.1358 113.923 26.373 116.786 26.373 119.816C26.373 122.847 27.1358 125.709 28.5011 127.893C29.8444 130.043 32.0202 131.865 34.8413 131.865Z" fill="#CC5520" stroke="white" stroke-width="5"/>
<path d="M202.584 129.515C205.358 129.004 207.168 126.817 208.099 124.46C209.045 122.064 209.276 119.111 208.727 116.13C208.177 113.15 206.908 110.473 205.169 108.573C203.458 106.703 200.988 105.305 198.213 105.817C195.439 106.328 193.63 108.515 192.699 110.873C191.752 113.269 191.521 116.222 192.071 119.202C192.621 122.182 193.89 124.859 195.629 126.759C197.339 128.629 199.81 130.027 202.584 129.515Z" fill="#CC5520" stroke="white" stroke-width="5"/>
<path d="M22.9048 133.656C25.7259 133.656 27.9017 131.833 29.245 129.684C30.6103 127.499 31.3731 124.637 31.3731 121.607C31.3731 118.576 30.6103 115.714 29.245 113.529C27.9017 111.38 25.7259 109.557 22.9048 109.557C20.0837 109.557 17.9079 111.38 16.5646 113.529C15.1993 115.714 14.4365 118.576 14.4365 121.607C14.4365 124.637 15.1993 127.499 16.5646 129.684C17.9079 131.833 20.0837 133.656 22.9048 133.656Z" fill="#EA9127" stroke="white" stroke-width="5"/>
<path d="M191.17 133.442C193.945 132.93 195.754 130.743 196.685 128.386C197.632 125.99 197.863 123.037 197.313 120.056C196.763 117.076 195.494 114.4 193.755 112.499C192.044 110.629 189.574 109.231 186.8 109.743C184.025 110.254 182.216 112.441 181.285 114.799C180.339 117.195 180.108 120.148 180.657 123.128C181.207 126.108 182.476 128.785 184.215 130.685C185.926 132.555 188.396 133.953 191.17 133.442Z" fill="#EA9127" stroke="white" stroke-width="5"/>
</svg>
